<svg width="532" height="532" viewBox="0 0 532 532" fill="none" xmlns="http://www.w3.org/2000/svg">
<path d="M466.191 162H389.745C389.745 185.285 389.745 185.285 389.745 185.285C432.531 186.46 443.375 221.571 443.448 238.98H466.191V162Z" fill="white"/>
<path d="M361.064 270.273H437.787C437.787 246.958 437.787 246.958 437.787 246.958C394.846 245.781 383.963 210.623 383.889 193.191H361.064V270.273Z" fill="white"/>
<path d="M66 207.573V162H247.071V207.573H184.408V370.334H128.663V207.573H66Z" fill="white"/>
<path d="M221.124 370.366H160.089L228.855 162.032H306.167L374.933 370.366H313.898L265.494 206.847H263.867L221.124 370.366ZM209.731 288.172H324.477V330.49H209.731V288.172Z" fill="white"/>
<rect x="10" y="10" width="512" height="512" rx="87" stroke="white" stroke-width="20"/>
</svg>
